<?xml version="1.0" encoding="utf-8"?>
<!-- Generator: Adobe Illustrator 16.0.0, SVG Export Plug-In . SVG Version: 6.00 Build 0)  -->
<!DOCTYPE svg PUBLIC "-//W3C//DTD SVG 1.1//EN" "http://www.w3.org/Graphics/SVG/1.1/DTD/svg11.dtd">
<svg version="1.1" id="Layer_1" xmlns="http://www.w3.org/2000/svg" xmlns:xlink="http://www.w3.org/1999/xlink" x="0px" y="0px"
	 width="500px" height="422px" viewBox="0 0 500 422" enable-background="new 0 0 500 422" xml:space="preserve">
<g id="BACKGROUND">
</g>
<g>
	<path fill="#ECF3FF" d="M112.414,59.949c15.62,1.045,22.155-9.612,29.494-23.311C162-0.864,206.746,2.75,221.756,25.843
		c10.632,16.357,33.559,12.992,52.104,6.591c18.254-6.301,49.354-12.354,74.127-4.824c21.636,6.577,30.514,30.302,50.234,28.842
		c43.025-3.184,64.716,39.293,56.924,57.818c-5.087,12.091-7.61,25.617-3.477,38.059c4.555,13.703,14.958,24.551,23.367,36.331
		c8.408,11.78,15.181,26.505,11.001,40.325c-3.577,11.826-14.247,20.008-20.871,30.465c-20.568,32.475-0.222,82.242-27.628,109.311
		c-19.618,19.375-51.604,14.902-79.053,18.601c-22.894,3.084-44.436,12.696-67.221,16.466c-46.147,7.627-92.75-9.175-139.536-9.648
		c-16.479-0.165-33.266,1.671-49.227-2.395c-21.295-5.423-39.417-21.809-46.806-42.318C45.501,321.159,55.161,288.4,43.643,260.6
		c-9.383-22.647-32.328-41.076-30.884-65.516c0.898-15.215,11.294-27.943,18.443-41.44C41.831,133.583,27.762,54.284,112.414,59.949
		z M248.592,23.207c-4.105,0-7.434,2.55-7.434,5.695c0,3.145,3.337,5.424,7.434,5.695c13.35,0.882,13.35-4.516,13.35-7.66
		C261.941,21.912,252.697,23.207,248.592,23.207z M384.168,47.491c3.57,2.948,8.119,4.713,12.761,4.951
		c1.239,0.063,2.589-0.016,3.545-0.8c1.185-0.973,1.312-2.957,0.263-4.069c-0.659-0.7-1.621-1.014-2.518-1.377
		c-1.524-0.62-3.021-1.508-3.886-2.899c-0.251-0.403-0.468-0.866-0.883-1.101C390.866,40.742,379.471,43.612,384.168,47.491z
		 M406.908,52.522c1.175,0.406,2.463,0.032,3.646-0.353c0.759-0.246,1.689-0.789,1.485-1.553c-0.098-0.368-0.444-0.613-0.783-0.793
		c-1.557-0.833-3.575-1.447-5.14-0.381C404.552,50.507,405.732,52.116,406.908,52.522z M461.201,159.788
		c0.203,1.771,1.296,3.302,2.354,4.745c2.04,2.782,4.111,5.599,6.807,7.77c1.139,0.918,2.464,1.74,3.932,1.791
		c1.338,0.046,2.618-0.559,3.702-1.336c2.642-1.893,4.424-4.918,4.789-8.127c0.501-4.403-1.548-8.689-3.931-12.439
		c-1.476-2.323-3.194-4.638-5.664-5.883c-4.14-2.088-6.873-0.266-8.029,3.4C464.095,153.08,460.771,156.03,461.201,159.788z
		 M20.821,262.293c-2.18,1.92-0.214,7.539,0.43,11.248c0.193,1.111,0.45,2.262,1.153,3.15c0.96,1.215,2.555,1.713,4.051,2.146
		c2.653,0.771,5.869,1.422,7.895-0.44c1.503-1.383,1.716-3.638,1.713-5.67c-0.002-1.854-0.103-3.711-0.3-5.558
		c-0.095-0.885-0.222-1.801-0.697-2.558c-0.606-0.969-1.687-1.532-2.745-1.979C28.527,261.025,23.001,260.373,20.821,262.293z
		 M154.04,403.059c-1.29,0.262-2.829,0.816-3.016,2.105c-0.154,1.066,0.744,1.977,1.612,2.623
		c7.114,5.307,16.687,5.646,25.592,5.771c1.04,0.016,2.116,0.021,3.073-0.381c1.905-0.803,2.819-3.313,1.932-5.164
		c-0.324-0.676-0.835-1.246-1.374-1.77C174.705,399.279,162.943,401.273,154.04,403.059z M331.697,399.469
		c-8.028,5.873,0.092,11.115,10.23,7.227c5.465-2.098,10.704-4.166,16.297-5.568c1.809-0.453,12.736-2.816,12.737-5.271
		c0.004-6.509-12.313-4.973-20.062-3.889C344.658,392.842,338.318,394.625,331.697,399.469z"/>
</g>
<g id="DESIGNED_BY_FREEPIK">
</g>
<g>
	<g>
		<g>
			<rect x="265.301" y="84.763" fill="#6DBFF4" width="151.057" height="92.343"/>
			<g>
				<rect x="258.095" y="77.957" fill="#A8D3F4" width="155.861" height="97.147"/>
				<rect x="260.496" y="80.359" fill="#6893E0" width="151.058" height="92.343"/>
				<rect x="262.365" y="83.028" fill="#81AFF4" width="147.32" height="89.674"/>
			</g>
		</g>
		<g>
			<g>
				<rect x="371.521" y="91.436" fill="#FFFFFF" width="28.424" height="40.833"/>
				<rect x="374.724" y="95.438" fill="#DFE6FF" width="21.017" height="8.407"/>
				<rect x="374.724" y="106.248" fill="#81AFF4" width="21.017" height="2.402"/>
				<rect x="374.724" y="110.117" fill="#81AFF4" width="21.017" height="2.402"/>
				<rect x="374.724" y="113.987" fill="#81AFF4" width="21.017" height="2.402"/>
				<rect x="374.724" y="118.457" fill="#DFE6FF" width="9.308" height="9.908"/>
				<rect x="385.433" y="118.357" fill="#DFE6FF" width="10.208" height="1.502"/>
				<rect x="385.433" y="121.56" fill="#DFE6FF" width="10.208" height="1.501"/>
			</g>
			<g>
				<rect x="386.733" y="135.872" fill="#FFFFFF" width="13.011" height="17.214"/>
				<rect x="388.067" y="138.007" fill="#DFE6FF" width="10.275" height="7.739"/>
			</g>
			<g>
				
					<rect x="323.615" y="91.302" fill="none" stroke="#FFFFFF" stroke-width="0.5" stroke-miterlimit="10" width="44.303" height="22.418"/>
				<g>
					<rect x="326.284" y="94.637" fill="#FFFFFF" width="4.938" height="1.068"/>
					<rect x="326.284" y="97.34" fill="#FFFFFF" width="16.013" height="1.068"/>
					<rect x="326.284" y="99.608" fill="#FFFFFF" width="16.013" height="1.067"/>
					<rect x="326.284" y="101.877" fill="#FFFFFF" width="16.013" height="1.067"/>
					<rect x="326.284" y="104.146" fill="#FFFFFF" width="9.107" height="1.068"/>
				</g>
				<rect x="326.384" y="107.048" fill="#6893E0" width="13.011" height="4.504"/>
				<rect x="344.699" y="94.538" fill="#DFE6FF" width="20.216" height="9.408"/>
				<rect x="344.999" y="107.849" fill="#DFE6FF" width="2.202" height="2.202"/>
				<rect x="350.403" y="107.849" fill="#DFE6FF" width="2.202" height="2.202"/>
				<rect x="355.808" y="107.849" fill="#DFE6FF" width="2.202" height="2.202"/>
				<rect x="361.213" y="107.849" fill="#DFE6FF" width="2.201" height="2.202"/>
			</g>
			<g>
				<rect x="323.081" y="119.058" fill="#FFFFFF" width="15.613" height="3.203"/>
				<polyline fill="none" stroke="#FFFFFF" stroke-width="0.5" stroke-miterlimit="10" points="337.826,121.393 342.965,126.531 
					366.983,126.531 				"/>
			</g>
			<g>
				<rect x="323.081" y="130.4" fill="#FFFFFF" width="15.613" height="3.203"/>
				<polyline fill="none" stroke="#FFFFFF" stroke-width="0.5" stroke-miterlimit="10" points="337.826,132.735 342.965,137.874 
					366.983,137.874 				"/>
			</g>
			<g>
				<rect x="281.447" y="93.237" fill="#FFFFFF" width="3.702" height="1.067"/>
				<rect x="281.447" y="95.939" fill="#FFFFFF" width="12.009" height="1.066"/>
				<rect x="281.447" y="98.208" fill="#FFFFFF" width="12.009" height="1.068"/>
				<rect x="281.447" y="100.476" fill="#FFFFFF" width="12.009" height="1.068"/>
				<rect x="281.447" y="102.744" fill="#FFFFFF" width="6.83" height="1.067"/>
			</g>
			<rect x="296.859" y="93.437" fill="#6893E0" width="20.617" height="11.409"/>
			<g>
				<g>
					<path fill="#FFFFFF" d="M305.867,122.784h-0.477v-3.57c0-2.054-1.66-3.728-3.709-3.748l-0.099,0.021
						c-2.328,0-4.223-1.895-4.223-4.224v-3.569h0.476v3.569c0,2.053,1.66,3.727,3.71,3.748l0.098-0.02
						c2.329,0,4.224,1.895,4.224,4.223V122.784z"/>
					<path fill="#FFFFFF" d="M297.836,122.784h-0.476v-3.57c0-2.329,1.895-4.223,4.223-4.223l0.099,0.02
						c2.049-0.021,3.709-1.694,3.709-3.748v-3.569h0.477v3.569c0,2.329-1.895,4.224-4.224,4.224l-0.098-0.021
						c-2.05,0.021-3.71,1.694-3.71,3.748V122.784z"/>
				</g>
				<g>
					<rect x="298.787" y="108.347" fill="#6893E0" width="5.593" height="0.773"/>
					<rect x="298.787" y="109.954" fill="#6893E0" width="5.593" height="0.773"/>
					<rect x="298.787" y="111.56" fill="#6893E0" width="5.593" height="0.773"/>
				</g>
				<g>
					<rect x="298.787" y="117.866" fill="#6893E0" width="5.593" height="0.773"/>
					<rect x="298.787" y="119.472" fill="#6893E0" width="5.593" height="0.773"/>
					<rect x="298.787" y="121.078" fill="#6893E0" width="5.593" height="0.773"/>
				</g>
			</g>
			<path fill="#6893E0" d="M316.075,114.454h-5.204c-0.442,0-0.801-0.358-0.801-0.8v-5.204c0-0.443,0.358-0.801,0.801-0.801h5.204
				c0.442,0,0.801,0.358,0.801,0.801v5.204C316.876,114.096,316.518,114.454,316.075,114.454z"/>
			<path fill="#DFE6FF" d="M316.075,126.063h-5.204c-0.442,0-0.801-0.358-0.801-0.801v-5.204c0-0.442,0.358-0.801,0.801-0.801h5.204
				c0.442,0,0.801,0.359,0.801,0.801v5.204C316.876,125.705,316.518,126.063,316.075,126.063z"/>
			<path fill="#DFE6FF" d="M316.075,137.673h-5.204c-0.442,0-0.801-0.358-0.801-0.801v-5.204c0-0.442,0.358-0.801,0.801-0.801h5.204
				c0.442,0,0.801,0.359,0.801,0.801v5.204C316.876,137.315,316.518,137.673,316.075,137.673z"/>
		</g>
	</g>
	<g>
		<path fill="#FFFFFF" d="M254.156,136.155c0,0,5.866,5.817-5.034,21.389c-10.901,15.571-20.814,27.17-20.814,27.17l-11.695-8.39
			c0,0,15.808-33.056,20.566-38.623C241.937,132.134,251.537,133.114,254.156,136.155z"/>
		<g>
			<g>
				<linearGradient id="SVGID_1_" gradientUnits="userSpaceOnUse" x1="178.563" y1="147.915" x2="178.563" y2="182.7121">
					<stop  offset="0" style="stop-color:#FFFFFF"/>
					<stop  offset="1" style="stop-color:#CCFFFF"/>
				</linearGradient>
				<path fill="url(#SVGID_1_)" d="M178.563,173.135L178.563,173.135c-1.548,0-2.802-1.254-2.802-2.802v-22.418h5.604v22.418
					C181.365,171.881,180.11,173.135,178.563,173.135z"/>
				<path fill="#5EC1CA" d="M178.563,172.16L178.563,172.16c-1.078,0-1.952-0.874-1.952-1.952v-15.613h3.904v15.613
					C180.515,171.286,179.641,172.16,178.563,172.16z"/>
				<rect x="175.761" y="147.915" fill="#A6D0F4" width="5.604" height="1.334"/>
				<path fill="#FFFFFF" d="M181.114,148.682h-5.154c-0.358,0-0.65-0.291-0.65-0.65l0,0c0-0.36,0.292-0.651,0.65-0.651h5.154
					c0.359,0,0.651,0.291,0.651,0.651l0,0C181.766,148.391,181.474,148.682,181.114,148.682z"/>
			</g>
			<g>
				<path fill="#5BA6D9" d="M226.603,294.401c0,0,30.424-6.806,91.675,4.004c0,0-37.631-104.085-39.232-104.085
					s-46.037,2.001-46.037,2.001L226.603,294.401z"/>
				<path fill="#3E4551" d="M249.129,329.889c0,0,1.525,12.359,1.525,13.579h-22.887c0,0-5.646,0,2.289-4.729
					c3.65-2.177,8.696-2.136,10.223-5.188c1.525-3.052,1.831-4.729,1.831-4.729L249.129,329.889z"/>
				<path fill="#354C6D" d="M235.931,203.27c0,0,0.915,96.735,4.577,126.64l9.612,0.458c0,0,9.613-105.432,9.918-119.164
					c0.305-13.733,0-14.648,0-14.648L235.931,203.27z"/>
				<path fill="#3E4551" d="M280.197,343.643h16.913c-0.081-5.346-2.972-16.021-2.972-16.021l-6.637,1.602
					c0,0,0.687,3.891-2.518,7.553C282.593,339.51,280.713,342.241,280.197,343.643z"/>
				<path fill="#355390" d="M282.314,201.744l13.121,128.166h-9.459c0,0-15.868-59.506-18.31-68.66s-20.141-58.895-20.141-58.895
					L282.314,201.744z"/>
				<path fill="#355390" d="M235.931,204.033c0,0,0.458,11.443,18.996,10.299l4.807-13.274L235.931,204.033z"/>
				<g>
					<g>
						<path fill="#38B1A7" d="M252.104,128.201c0,0-9.461,4.577-12.817,10.375s-11.596,36.619-3.967,66.677
							c4.272,2.442,35.856,4.578,48.672-3.051c1.831-3.357,4.121-33.11,7.477-48.368c3.357-15.258,2.746-24.107-3.051-25.633
							c-5.798-1.526-17.089-3.967-17.089-3.967L252.104,128.201z"/>
						<path fill="#F69983" d="M263.395,110.655l-10.527,16.478c0,0-0.458,7.553,9.154,4.12c7.324-3.204,10.757-6.18,10.757-6.18
							l-5.264-21.056L263.395,110.655z"/>
					</g>
				</g>
				<path fill="#F4796F" d="M254.767,124.159c8.549-1.022,13.376-5.686,15.624-8.635l-1.243-4.971l-5.787,0.155L254.767,124.159z"/>
				<g>
					<path fill="#FBA894" d="M249.983,96.827c0,0-2.357,14.57,0.643,22.284c2.356,3.429,12.856,0.429,17.998-5.143
						c5.143-5.571,6.643-14.998,4.285-20.784c-2.356-5.786-13.284-6-16.712-4.714C252.769,89.756,250.198,94.47,249.983,96.827z"/>
					<path fill="#FBA894" d="M268.245,108.348c0,0,3.456-3.769,4.869-0.942c1.414,2.827-5.812,6.911-5.969,4.869
						C266.989,110.233,268.245,108.348,268.245,108.348z"/>
					<circle fill="#505E83" cx="258.127" cy="105.646" r="1.059"/>
					<circle fill="#505E83" cx="250.989" cy="105.478" r="1.059"/>
					<path fill="#DE6972" d="M253.791,106.803c0,0-2.211,4.606-1.936,4.974c0.277,0.369,1.936,0,2.856-0.644
						c0.921-0.646-1.198-1.014-1.198-1.014S254.988,106.434,253.791,106.803z"/>
					<g>
						<path fill="#DE6972" d="M253.115,114.356l4.729-0.308c0,0-0.123,2.211-2.457,2.211
							C253.054,116.26,253.115,114.356,253.115,114.356z"/>
						<path fill="#FFFFFF" d="M254.958,114.909c0.846-0.065,1.34-0.439,1.625-0.778l-3.085,0.2
							C253.628,114.624,253.981,114.983,254.958,114.909z"/>
					</g>
					<path fill="#505E83" d="M257.69,102.504c0,0,1.535-0.491,2.824,0.337c0.277-0.062,0.062-0.829-0.675-1.013
						C259.103,101.644,257.444,101.736,257.69,102.504z"/>
					<path fill="#505E83" d="M250.382,102.381c0,0,1.536-0.491,2.825,0.338c0.276-0.062,0.062-0.83-0.675-1.014
						C251.795,101.521,250.137,101.613,250.382,102.381z"/>
					<ellipse fill="#FB8585" cx="260.584" cy="109.221" rx="1.405" ry="1.313"/>
					<path fill="#FB8585" d="M249.116,107.908c-0.004,0-0.007,0.001-0.011,0.002c-0.006,0.865,0.007,1.743,0.043,2.621
						c0.761-0.016,1.372-0.595,1.372-1.31C250.521,108.496,249.892,107.908,249.116,107.908z"/>
				</g>
				<path fill="#505E83" d="M267.035,94.438c0,0-10.608,4.003-17.414,1c0.801-5.204,7.605-10.208,17.414-7.806
					c5.404,1.401,6.405,4.604,6.405,4.604s2.002,0,2.602,4.204c0.601,4.203-3.269,10.508-3.269,10.508s-2.535-0.3-3.737,2.902
					l-1.601-0.2c0,0,0.867-2.736,1.668-4.938C269.904,102.511,266.034,100.843,267.035,94.438z"/>
				<path fill="#FFFFFF" d="M272.573,124.462c0,0-8.874,93.744,13.545,177.012l36.829-1.602c0,0-25.087-80.065-28.823-101.417
					c-3.736-21.351-3.736-69.924-3.736-69.924S279.518,124.74,272.573,124.462z"/>
				<path fill="#FFFFFF" d="M253.558,125.864c0,0-26.155,81.267-20.55,172.942h-12.011c0,0,1.352-130.702,17.89-162.231
					C238.887,136.575,245.284,131.068,253.558,125.864z"/>
				<path fill="#FFFFFF" d="M289.17,128.239c0,0,8.239,0.611,10.07,19.53s1.831,34.178,1.831,34.178l-14.343,1.221
					c0,0-9.46-35.398-9.46-42.723C277.269,133.122,285.203,127.629,289.17,128.239z"/>
				<path fill="#DFE6FF" d="M270.992,184.46l7.452-23.167l-5.004-8.007l5.404-3.403c-0.857-7.379-4.803-21.513-5.911-25.402
					c-0.121-0.006-0.243-0.015-0.36-0.019C272.573,124.462,270.236,149.162,270.992,184.46z"/>
				<path fill="#DFE6FF" d="M241.28,147.881l4.138,3.87l-5.604,6.806l0.8,22.752c5.812-31.453,12.944-55.445,12.944-55.445
					S242.215,145.613,241.28,147.881z"/>
				<path fill="#A0CED9" d="M292.445,184.688l-21.54-9.451c0,0,10.675,14.412,22.091,15.052
					C292.798,188.5,292.614,186.625,292.445,184.688z"/>
				<g>
					<g>
						<path fill="#FBA894" d="M263.403,161.417c0,0,35.398,10.07,37.229,17.089c1.831,7.019-6.714,11.291-13.732,7.629
							c-7.019-3.662-25.938-20.446-25.938-20.446L263.403,161.417z"/>
					</g>
					<path fill="#FFFFFF" d="M263.433,169.099l4.003-8.006c0,0,24.22,9.007,28.423,12.009c4.204,3.003,6.406,5.605,4.604,10.809
						s-10.81,5.404-15.813,2.001S263.433,169.099,263.433,169.099z"/>
				</g>
				<path fill="#DFE6FF" d="M287.186,138.141c0,0-2.402,15.746-1.067,29.357C286.118,167.498,283.182,154.153,287.186,138.141z"/>
				<path fill="#DFE6FF" d="M286.451,168.698c0,0,7.005,3.203,9.809,9.609C296.26,178.307,294.857,170.5,286.451,168.698z"/>
			</g>
			<g>
				<g>
					<path fill="#FBA894" d="M189.477,163.286c0,0,35.398,10.07,37.229,17.089c1.83,7.018-6.714,11.291-13.732,7.629
						s-25.938-20.446-25.938-20.446L189.477,163.286z"/>
				</g>
				<path fill="#FFFFFF" d="M190.306,171.501l4.003-8.007c0,0,24.221,9.008,28.424,12.01c4.203,3.003,6.405,5.605,4.604,10.81
					c-1.802,5.204-10.809,5.404-15.813,2.001C206.519,184.912,190.306,171.501,190.306,171.501z"/>
				<path fill="#FBA894" d="M189.477,163.286l-4.709-6.997l-9.007-1.001c0,0,1.048,4.604,4.403,4.604c0,0-0.2,5.605,1.4,7.907
					l5.471-0.24L189.477,163.286z"/>
			</g>
			<path fill="#FBA894" d="M259.442,149.964c0,0,1.528,1.417,1.752,3.137c0.224,1.72-0.457,4.769-0.457,4.769l-3.427-3.592
				L259.442,149.964z"/>
			
				<rect x="237.811" y="142.143" transform="matrix(0.9941 0.1082 -0.1082 0.9941 18.5066 -25.9709)" fill="#DFE6FF" width="21.351" height="30.692"/>
			<path fill="#FBA894" d="M263.403,161.417l-3.842-8.332l-8.54-1.067c0,0-1.601,4.137,3.069,5.738c0,0-1.203,5.191,6.872,7.934
				L263.403,161.417z"/>
		</g>
	</g>
	<g>
		<g>
			<g>
				<linearGradient id="SVGID_2_" gradientUnits="userSpaceOnUse" x1="368.9648" y1="174.624" x2="362.4262" y2="206.2497">
					<stop  offset="0" style="stop-color:#FFFFFF"/>
					<stop  offset="1" style="stop-color:#CCFFFF"/>
				</linearGradient>
				<path fill="url(#SVGID_2_)" d="M366.63,188.53V169.9h-5.07v18.63c-4.286,1.124-7.452,5.012-7.452,9.65
					c0,5.515,4.472,9.987,9.987,9.987s9.987-4.472,9.987-9.987C374.082,193.542,370.916,189.654,366.63,188.53z"/>
				<rect x="361.56" y="169.9" fill="#A6D0F4" width="5.07" height="1.602"/>
				<path fill="#FFFFFF" d="M367.164,170.967h-6.139c-0.589,0-1.067-0.479-1.067-1.067l0,0c0-0.59,0.479-1.068,1.067-1.068h6.139
					c0.59,0,1.067,0.478,1.067,1.068l0,0C368.231,170.489,367.754,170.967,367.164,170.967z"/>
				<g>
					<path fill="#5EC1EF" d="M364.613,198.323c-3.966-1.458-7.041-1.489-8.853-1.29c-0.052,0.379-0.089,0.763-0.089,1.156
						c0,4.643,3.765,8.407,8.407,8.407c4.644,0,8.407-3.764,8.407-8.407c0-0.023-0.003-0.047-0.003-0.07
						C370.848,198.981,368.221,199.648,364.613,198.323z"/>
				</g>
			</g>
			<g>
				<rect x="357.489" y="207.397" fill="#6E8EC5" width="13.611" height="2.001"/>
				<rect x="359.271" y="210.266" fill="#6E8EC5" width="10.047" height="1.001"/>
				<g>
					<rect x="359.266" y="208.932" fill="#6E8EC5" width="0.901" height="3.903"/>
					<rect x="368.423" y="208.932" fill="#6E8EC5" width="0.901" height="3.903"/>
				</g>
			</g>
		</g>
		<g>
			<linearGradient id="SVGID_3_" gradientUnits="userSpaceOnUse" x1="383.9727" y1="200.2456" x2="383.7057" y2="211.9884">
				<stop  offset="0" style="stop-color:#FFFFFF"/>
				<stop  offset="1" style="stop-color:#CCFFFF"/>
			</linearGradient>
			<path fill="url(#SVGID_3_)" d="M389,203.86l0.108-0.042l1.896-1.896h-4.371h-1.259h-8.626l1.896,1.896l0,0
				c-2.681,0.467-4.721,2.8-4.721,5.614v4.98h19.569v-4.98C393.492,206.698,391.567,204.416,389,203.86z"/>
			<rect x="375.225" y="209.132" fill="#5EC1CA" width="16.688" height="4.803"/>
		</g>
		<g>
			<linearGradient id="SVGID_4_" gradientUnits="userSpaceOnUse" x1="135.5679" y1="200.2456" x2="135.301" y2="211.9884">
				<stop  offset="0" style="stop-color:#FFFFFF"/>
				<stop  offset="1" style="stop-color:#CCFFFF"/>
			</linearGradient>
			<path fill="url(#SVGID_4_)" d="M140.596,203.86l0.108-0.042l1.896-1.896h-4.371h-1.259h-8.627l1.896,1.896l0,0
				c-2.68,0.467-4.721,2.8-4.721,5.614v4.98h19.569v-4.98C145.088,206.698,143.164,204.416,140.596,203.86z"/>
			<rect x="126.82" y="209.132" fill="#5EC1CA" width="16.688" height="4.803"/>
		</g>
		<g>
			<linearGradient id="SVGID_5_" gradientUnits="userSpaceOnUse" x1="191.2563" y1="204.2974" x2="191.081" y2="212.0129">
				<stop  offset="0" style="stop-color:#FFFFFF"/>
				<stop  offset="1" style="stop-color:#CCFFFF"/>
			</linearGradient>
			<path fill="url(#SVGID_5_)" d="M194.56,206.671l0.071-0.027l1.246-1.246h-2.872h-0.827h-5.668l1.246,1.246l0,0
				c-1.762,0.307-3.102,1.839-3.102,3.688v3.272h12.857v-3.272C197.512,208.537,196.247,207.037,194.56,206.671z"/>
			<rect x="185.509" y="210.135" fill="#5EC1CA" width="10.966" height="3.157"/>
		</g>
		<g>
			<g>
				<linearGradient id="SVGID_6_" gradientUnits="userSpaceOnUse" x1="318.5967" y1="190.4419" x2="311.3909" y2="227.0046">
					<stop  offset="0" style="stop-color:#FFFFFF"/>
					<stop  offset="1" style="stop-color:#CCFFFF"/>
				</linearGradient>
				<polygon fill="url(#SVGID_6_)" points="308.27,191.518 305.667,191.518 308.27,194.12 308.27,213.936 326.684,213.936 
					326.684,191.518 				"/>
				<rect x="309.871" y="202.594" fill="#5EC1EF" width="14.812" height="9.741"/>
			</g>
			<path fill="#FFFFFF" d="M311.805,210.6L311.805,210.6c-0.331,0-0.601-0.27-0.601-0.601V194.92c0-0.332,0.27-0.601,0.601-0.601
				l0,0c0.332,0,0.602,0.269,0.602,0.601V210C312.406,210.331,312.137,210.6,311.805,210.6z"/>
		</g>
		<g>
			<rect x="265.634" y="207.798" fill="#6E8EC5" width="40.033" height="6.138"/>
			<rect x="263.433" y="209.398" fill="#FFFFFF" width="40.032" height="6.139"/>
			<rect x="269.837" y="206.73" fill="#A6D0F4" width="33.628" height="1.467"/>
		</g>
		<path fill="none" stroke="#FFFFFF" stroke-width="3" stroke-miterlimit="10" d="M134.793,204.061v-13.695
			c0-0.801,0.318-1.569,0.885-2.134l20.866-20.868c1.18-1.179,3.092-1.179,4.271,0l0,0c1.18,1.18,1.18,3.092,0,4.271l-7.389,7.389
			c-0.566,0.566-0.885,1.334-0.885,2.135v2.001c0,1.667,1.353,3.02,3.02,3.02h13.744c0.802,0,1.569,0.318,2.136,0.884l3.436,3.436
			c0.566,0.567,1.334,0.884,2.135,0.884h4.838c0.801,0,1.569,0.318,2.136,0.885l5.771,5.771c0.566,0.566,0.885,1.334,0.885,2.135
			v2.552"/>
		<g>
			<rect x="160.814" y="188.849" fill="#94AFE0" width="1.335" height="24.954"/>
			<rect x="159.747" y="184.312" fill="#6E8EC5" width="3.603" height="4.803"/>
		</g>
		<rect x="178.43" y="193.083" fill="#94AFE0" width="1.334" height="20.72"/>
		<rect x="177.361" y="189.315" fill="#6E8EC5" width="3.604" height="3.989"/>
		<g>
			<linearGradient id="SVGID_7_" gradientUnits="userSpaceOnUse" x1="111.5854" y1="177.9063" x2="111.5854" y2="214.486">
				<stop  offset="0" style="stop-color:#FFFFFF"/>
				<stop  offset="1" style="stop-color:#CCFFFF"/>
			</linearGradient>
			<path fill="url(#SVGID_7_)" d="M123.889,210.521l-8.874-11.221v-25.146h-6.858V199.3l-8.874,11.221
				c-0.547,0.69-0.055,1.707,0.826,1.707h22.954C123.943,212.228,124.435,211.211,123.889,210.521z"/>
			<rect x="108.156" y="174.153" fill="#A6D0F4" width="6.858" height="2.181"/>
			<rect x="107.434" y="173.076" fill="#FFFFFF" width="8.304" height="2.312"/>
		</g>
		<path fill="none" stroke="#FFFFFF" stroke-width="3" stroke-miterlimit="10" d="M317.076,185.646v-32.159
			c0-3.906,3.166-7.073,7.072-7.073l0,0c3.906,0,7.073,3.167,7.073,7.073v22.151c0,3.906,3.166,7.073,7.071,7.073h1.068
			c3.906,0,7.072-3.167,7.072-7.073v-22.418c0-3.906,3.166-7.072,7.072-7.072h3.736c3.906,0,7.073,3.166,7.073,7.072v10.809"/>
		<g>
			<rect x="337.76" y="185.046" fill="#94AFE0" width="1.334" height="28.757"/>
			<rect x="336.692" y="180.508" fill="#6E8EC5" width="3.603" height="4.804"/>
		</g>
		<g>
			<path fill="#CF7ACA" d="M120.876,209.482l-3.57-4.514c-2.529,2.035-5.216,1.5-8.7,0.16c-0.998-0.384-1.776-0.524-2.388-0.522
				l-3.856,4.875c-0.411,0.52-0.041,1.285,0.621,1.285h17.272C120.917,210.768,121.287,210.002,120.876,209.482z"/>
		</g>
		<rect x="211.39" y="158.491" fill="#6E8EC5" width="1.201" height="51.042"/>
		<rect x="206.285" y="208.631" fill="#94AFE0" width="12.21" height="4.503"/>
		<rect x="202.582" y="210.333" fill="#6E8EC5" width="19.616" height="2.802"/>
		<g>
			<g>
				<g>
					<rect x="353.281" y="232.084" fill="#A6D0F4" width="11.209" height="13.345"/>
					<rect x="346.742" y="221.542" fill="#6E8EC5" width="25.222" height="8.007"/>
					<rect x="352.614" y="229.549" fill="#A6C1EF" width="13.478" height="4.938"/>
					<polygon fill="#6E8EC5" points="352.603,234.553 333.799,344.043 335.667,344.043 357.116,234.553 					"/>
					<polygon fill="#6E8EC5" points="366.068,234.553 384.872,344.043 383.004,344.043 361.555,234.553 					"/>
					<rect x="338.336" y="320.424" fill="#6E8EC5" width="41.634" height="2.001"/>
				</g>
				<g>
					<rect x="118.955" y="232.084" fill="#A6D0F4" width="11.21" height="13.345"/>
					<rect x="112.417" y="221.542" fill="#6E8EC5" width="25.221" height="8.007"/>
					<rect x="118.289" y="229.549" fill="#A6C1EF" width="13.478" height="4.938"/>
					<polygon fill="#6E8EC5" points="118.277,234.553 99.473,344.043 101.342,344.043 122.791,234.553 					"/>
					<polygon fill="#6E8EC5" points="131.742,234.553 150.547,344.043 148.679,344.043 127.229,234.553 					"/>
					<rect x="104.01" y="320.424" fill="#6E8EC5" width="41.635" height="2.001"/>
				</g>
			</g>
			<g>
				<rect x="83.643" y="212.335" fill="#A6D0F4" width="317.061" height="4.804"/>
				<rect x="95.252" y="217.139" fill="#A6D0F4" width="293.841" height="6.005"/>
				<rect x="95.252" y="217.139" fill="#8EA8E5" width="293.841" height="1.201"/>
			</g>
		</g>
		<g>
			<linearGradient id="SVGID_8_" gradientUnits="userSpaceOnUse" x1="205.7847" y1="155.7212" x2="205.7847" y2="190.519">
				<stop  offset="0" style="stop-color:#FFFFFF"/>
				<stop  offset="1" style="stop-color:#CCFFFF"/>
			</linearGradient>
			<path fill="url(#SVGID_8_)" d="M205.785,180.942L205.785,180.942c-1.548,0-2.803-1.254-2.803-2.802v-22.418h5.604v22.418
				C208.587,179.688,207.332,180.942,205.785,180.942z"/>
			<path fill="#5EC1CA" d="M205.785,179.966L205.785,179.966c-1.078,0-1.951-0.873-1.951-1.952v-15.613h3.902v15.613
				C207.736,179.093,206.863,179.966,205.785,179.966z"/>
			<rect x="202.982" y="155.721" fill="#A6D0F4" width="5.604" height="1.334"/>
			<path fill="#FFFFFF" d="M208.337,156.488h-5.154c-0.359,0-0.65-0.291-0.65-0.65l0,0c0-0.359,0.291-0.65,0.65-0.65h5.154
				c0.359,0,0.65,0.292,0.65,0.65l0,0C208.987,156.197,208.696,156.488,208.337,156.488z"/>
		</g>
		<g>
			<rect x="202.582" y="165.396" fill="#6E8EC5" width="9.608" height="0.7"/>
			<g>
				<circle fill="#94AFE0" cx="211.89" cy="165.896" r="1.901"/>
				<circle fill="#6E8EC5" cx="211.89" cy="165.896" r="0.901"/>
			</g>
			<rect x="202.582" y="175.704" fill="#6E8EC5" width="9.608" height="0.701"/>
			<g>
				<circle fill="#94AFE0" cx="211.89" cy="176.205" r="1.901"/>
				<circle fill="#6E8EC5" cx="211.89" cy="176.205" r="0.901"/>
			</g>
		</g>
		<polygon fill="#FBA894" points="171.057,158.39 168.555,158.29 168.955,161.493 171.257,167.298 173.059,166.197 		"/>
	</g>
	<g>
		<g>
			<path fill="#95BFF4" d="M150.272,133.336c-3.311,0-6.005-2.693-6.005-6.005V97.974c0-3.312,2.694-6.005,6.005-6.005h79.266
				c3.311,0,6.005,2.693,6.005,6.005v29.357c0,3.312-2.694,6.005-6.005,6.005H150.272z"/>
			<path fill="#A8D3F4" d="M149.071,131.735c-3.311,0-6.005-2.693-6.005-6.005V96.373c0-3.312,2.694-6.005,6.005-6.005h79.266
				c3.312,0,6.005,2.693,6.005,6.005v29.357c0,3.312-2.693,6.005-6.005,6.005H149.071z"/>
			<path fill="#81AFF4" d="M228.337,129.333h-79.265c-1.99,0-3.604-1.613-3.604-3.603V96.373c0-1.99,1.613-3.603,3.604-3.603h79.265
				c1.99,0,3.603,1.613,3.603,3.603v29.357C231.939,127.72,230.327,129.333,228.337,129.333z"/>
			<path fill="#6893E0" d="M225.401,96.526h-73.394c-1.843,0-3.336,1.493-3.336,3.336v29.43c0.133,0.016,0.263,0.041,0.4,0.041
				h79.265c0.137,0,0.267-0.025,0.4-0.041v-29.43C228.737,98.019,227.244,96.526,225.401,96.526z"/>
		</g>
		<g>
			<g>
				<linearGradient id="SVGID_9_" gradientUnits="userSpaceOnUse" x1="155.9551" y1="112.5161" x2="155.9551" y2="130.4">
					<stop  offset="0" style="stop-color:#FFFFFF"/>
					<stop  offset="1" style="stop-color:#CCFFFF"/>
				</linearGradient>
				<path fill="url(#SVGID_9_)" d="M161.971,128.461l-4.339-5.486v-12.294h-3.354v12.294l-4.339,5.486
					c-0.267,0.338-0.026,0.835,0.404,0.835h11.223C161.997,129.296,162.237,128.799,161.971,128.461z"/>
				<rect x="154.278" y="110.681" fill="#A6D0F4" width="3.354" height="1.066"/>
				<rect x="153.926" y="110.154" fill="#FFFFFF" width="4.06" height="1.131"/>
			</g>
			<g>
				<path fill="#CF7ACA" d="M160.498,127.954l-1.746-2.207c-1.237,0.995-2.551,0.733-4.254,0.079
					c-0.487-0.188-0.868-0.256-1.167-0.255l-1.886,2.383c-0.201,0.254-0.021,0.628,0.304,0.628h8.444
					C160.518,128.582,160.698,128.208,160.498,127.954z"/>
			</g>
		</g>
		<g>
			<g>
				<linearGradient id="SVGID_10_" gradientUnits="userSpaceOnUse" x1="169.2993" y1="112.5161" x2="169.2993" y2="130.4">
					<stop  offset="0" style="stop-color:#FFFFFF"/>
					<stop  offset="1" style="stop-color:#CCFFFF"/>
				</linearGradient>
				<path fill="url(#SVGID_10_)" d="M175.314,128.461l-4.339-5.486v-12.294h-3.353v12.294l-4.339,5.486
					c-0.267,0.338-0.026,0.835,0.404,0.835h11.222C175.341,129.296,175.582,128.799,175.314,128.461z"/>
				<rect x="167.623" y="110.681" fill="#A6D0F4" width="3.353" height="1.066"/>
				<rect x="167.27" y="110.154" fill="#FFFFFF" width="4.06" height="1.131"/>
			</g>
			<g>
				<path fill="#5EC1CA" d="M173.842,127.954l-1.745-2.207c-1.237,0.995-2.551,0.733-4.255,0.079
					c-0.487-0.188-0.868-0.256-1.167-0.255l-1.885,2.383c-0.201,0.254-0.021,0.628,0.304,0.628h8.444
					C173.862,128.582,174.043,128.208,173.842,127.954z"/>
			</g>
		</g>
		<g>
			<g>
				<linearGradient id="SVGID_11_" gradientUnits="userSpaceOnUse" x1="187.29" y1="105.7729" x2="180.0841" y2="142.3364">
					<stop  offset="0" style="stop-color:#FFFFFF"/>
					<stop  offset="1" style="stop-color:#CCFFFF"/>
				</linearGradient>
				<polygon fill="url(#SVGID_11_)" points="176.961,106.848 174.359,106.848 176.961,109.45 176.961,129.267 195.376,129.267 
					195.376,106.848 				"/>
				<rect x="178.563" y="117.923" fill="#5EC1EF" width="14.813" height="9.742"/>
			</g>
			<path fill="#FFFFFF" d="M180.498,125.931L180.498,125.931c-0.332,0-0.602-0.27-0.602-0.601v-15.079
				c0-0.333,0.27-0.601,0.602-0.601l0,0c0.331,0,0.6,0.268,0.6,0.601v15.079C181.098,125.661,180.829,125.931,180.498,125.931z"/>
		</g>
		<g>
			<path opacity="0.64" fill="#FFFFFF" d="M228.337,92.77h-48.974v36.563h48.974c1.99,0,3.603-1.613,3.603-3.603V96.373
				C231.939,94.383,230.327,92.77,228.337,92.77z"/>
			<polygon opacity="0.64" fill="#FFFFFF" points="187.989,129.333 197.864,129.333 213.749,92.77 203.875,92.77 			"/>
		</g>
	</g>
	<g>
		<rect x="107.304" y="119.058" fill="#6893E0" width="29.225" height="42.435"/>
		<g>
			<rect x="112.508" y="124.863" fill="#FFFFFF" width="5.74" height="1.068"/>
			<rect x="112.508" y="127.564" fill="#FFFFFF" width="18.615" height="1.068"/>
			<rect x="112.508" y="129.833" fill="#ACC5FF" width="18.615" height="1.067"/>
			<rect x="112.508" y="132.102" fill="#ACC5FF" width="18.615" height="1.068"/>
			<rect x="112.508" y="134.371" fill="#ACC5FF" width="10.588" height="1.067"/>
		</g>
		<g>
			<polygon fill="none" stroke="#FFFFFF" stroke-width="0.5" stroke-miterlimit="10" points="116.657,138.944 113.964,138.944 
				112.617,141.276 113.964,143.608 116.657,143.608 118.004,141.276 			"/>
			<polygon fill="none" stroke="#FFFFFF" stroke-width="0.5" stroke-miterlimit="10" points="122.462,144.749 119.77,144.749 
				118.423,147.081 119.77,149.413 122.462,149.413 123.809,147.081 			"/>
		</g>
		<path fill="#ACC5FF" d="M130.223,157.289h-13.611c-0.387,0-0.7-0.313-0.7-0.7v-2.001c0-0.388,0.313-0.701,0.7-0.701h13.611
			c0.387,0,0.701,0.313,0.701,0.701v2.001C130.924,156.976,130.609,157.289,130.223,157.289z"/>
	</g>
</g>
</svg>
